{
    "asset" : {
        "generator" : "Khronos glTF Blender I/O v1.4.40",
        "version" : "2.0"
    },
    "scene" : 0,
    "scenes" : [
        {
            "name" : "Scene",
            "nodes" : [
                0,
                2,
                3
            ]
        }
    ],
    "nodes" : [
        {
            "name" : "Area",
            "rotation" : [
                0,
                0,
                -0.5282634496688843,
                0.8490805625915527
            ],
            "translation" : [
                16.274839401245117,
                10.896978378295898,
                0
            ]
        },
        {
            "camera" : 0,
            "name" : "Camera_Orientation",
            "rotation" : [
                -0.7071067690849304,
                0,
                0,
                0.7071067690849304
            ]
        },
        {
            "children" : [
                1
            ],
            "name" : "Camera",
            "rotation" : [
                0.5260568857192993,
                0.283972829580307,
                -0.19190998375415802,
                0.7783278226852417
            ],
            "translation" : [
                15.806981086730957,
                11.037579536437988,
                18.294946670532227
            ]
        },
        {
            "mesh" : 0,
            "name" : "Cube",
            "translation" : [
                0,
                3.3497183322906494,
                0
            ]
        }
    ],
    "cameras" : [
        {
            "name" : "Camera",
            "perspective" : {
                "aspectRatio" : 1.7777777777777777,
                "yfov" : 0.5033799372418416,
                "zfar" : 100,
                "znear" : 0.10000000149011612
            },
            "type" : "perspective"
        }
    ],
    "animations" : [
        {
            "channels" : [
                {
                    "sampler" : 0,
                    "target" : {
                        "node" : 2,
                        "path" : "rotation"
                    }
                },
                {
                    "sampler" : 1,
                    "target" : {
                        "node" : 2,
                        "path" : "translation"
                    }
                }
            ],
            "name" : "CameraAction",
            "samplers" : [
                {
                    "input" : 12,
                    "interpolation" : "LINEAR",
                    "output" : 13
                },
                {
                    "input" : 12,
                    "interpolation" : "LINEAR",
                    "output" : 14
                }
            ]
        },
        {
            "channels" : [
                {
                    "sampler" : 0,
                    "target" : {
                        "node" : 3,
                        "path" : "rotation"
                    }
                }
            ],
            "name" : "CubeAction",
            "samplers" : [
                {
                    "input" : 15,
                    "interpolation" : "LINEAR",
                    "output" : 16
                }
            ]
        }
    ],
    "materials" : [
        {
            "doubleSided" : true,
            "name" : "Material",
            "pbrMetallicRoughness" : {}
        },
        {
            "doubleSided" : true,
            "name" : "Material.001",
            "pbrMetallicRoughness" : {}
        },
        {
            "doubleSided" : true,
            "name" : "Material.003",
            "pbrMetallicRoughness" : {}
        },
        {
            "doubleSided" : true,
            "name" : "Material.004",
            "pbrMetallicRoughness" : {}
        }
    ],
    "meshes" : [
        {
            "name" : "Cube",
            "primitives" : [
                {
                    "attributes" : {
                        "POSITION" : 0,
                        "NORMAL" : 1
                    },
                    "indices" : 2,
                    "material" : 0
                },
                {
                    "attributes" : {
                        "POSITION" : 3,
                        "NORMAL" : 4
                    },
                    "indices" : 5,
                    "material" : 1
                },
                {
                    "attributes" : {
                        "POSITION" : 6,
                        "NORMAL" : 7
                    },
                    "indices" : 8,
                    "material" : 2
                },
                {
                    "attributes" : {
                        "POSITION" : 9,
                        "NORMAL" : 10
                    },
                    "indices" : 11,
                    "material" : 3
                }
            ]
        }
    ],
    "accessors" : [
        {
            "bufferView" : 0,
            "componentType" : 5126,
            "count" : 1393,
            "max" : [
                4.024835586547852,
                3.593074083328247,
                1.1787257194519043
            ],
            "min" : [
                -4.602097988128662,
                -3.3573310375213623,
                -1.1787340641021729
            ],
            "type" : "VEC3"
        },
        {
            "bufferView" : 1,
            "componentType" : 5126,
            "count" : 1393,
            "type" : "VEC3"
        },
        {
            "bufferView" : 2,
            "componentType" : 5123,
            "count" : 1470,
            "type" : "SCALAR"
        },
        {
            "bufferView" : 3,
            "componentType" : 5126,
            "count" : 296,
            "max" : [
                3.950315475463867,
                3.558565855026245,
                0.8889245986938477
            ],
            "min" : [
                -4.602097988128662,
                -3.184366464614868,
                -0.8889329433441162
            ],
            "type" : "VEC3"
        },
        {
            "bufferView" : 4,
            "componentType" : 5126,
            "count" : 296,
            "type" : "VEC3"
        },
        {
            "bufferView" : 5,
            "componentType" : 5123,
            "count" : 300,
            "type" : "SCALAR"
        },
        {
            "bufferView" : 6,
            "componentType" : 5126,
            "count" : 35,
            "max" : [
                4.024835586547852,
                1.8861463069915771,
                0.2790175676345825
            ],
            "min" : [
                3.9390759468078613,
                1.506751298904419,
                -0.2790260314941406
            ],
            "type" : "VEC3"
        },
        {
            "bufferView" : 7,
            "componentType" : 5126,
            "count" : 35,
            "type" : "VEC3"
        },
        {
            "bufferView" : 8,
            "componentType" : 5123,
            "count" : 36,
            "type" : "SCALAR"
        },
        {
            "bufferView" : 9,
            "componentType" : 5126,
            "count" : 32,
            "max" : [
                8.069244384765625,
                -3.3497180938720703,
                8.069244384765625
            ],
            "min" : [
                -8.069244384765625,
                -3.3497180938720703,
                -8.069244384765625
            ],
            "type" : "VEC3"
        },
        {
            "bufferView" : 10,
            "componentType" : 5126,
            "count" : 32,
            "type" : "VEC3"
        },
        {
            "bufferView" : 11,
            "componentType" : 5123,
            "count" : 90,
            "type" : "SCALAR"
        },
        {
            "bufferView" : 12,
            "componentType" : 5126,
            "count" : 201,
            "max" : [
                11.16
            ],
            "min" : [
                7.16
            ],
            "type" : "SCALAR"
        },
        {
            "bufferView" : 13,
            "componentType" : 5126,
            "count" : 201,
            "type" : "VEC4"
        },
        {
            "bufferView" : 14,
            "componentType" : 5126,
            "count" : 201,
            "type" : "VEC3"
        },
        {
            "bufferView" : 15,
            "componentType" : 5126,
            "count" : 358,
            "max" : [
                7.16
            ],
            "min" : [
                0.02
            ],
            "type" : "SCALAR"
        },
        {
            "bufferView" : 16,
            "componentType" : 5126,
            "count" : 358,
            "type" : "VEC4"
        }
    ],
    "bufferViews" : [
        {
            "buffer" : 0,
            "byteLength" : 16716,
            "byteOffset" : 0
        },
        {
            "buffer" : 0,
            "byteLength" : 16716,
            "byteOffset" : 16716
        },
        {
            "buffer" : 0,
            "byteLength" : 2940,
            "byteOffset" : 33432
        },
        {
            "buffer" : 0,
            "byteLength" : 3552,
            "byteOffset" : 36372
        },
        {
            "buffer" : 0,
            "byteLength" : 3552,
            "byteOffset" : 39924
        },
        {
            "buffer" : 0,
            "byteLength" : 600,
            "byteOffset" : 43476
        },
        {
            "buffer" : 0,
            "byteLength" : 420,
            "byteOffset" : 44076
        },
        {
            "buffer" : 0,
            "byteLength" : 420,
            "byteOffset" : 44496
        },
        {
            "buffer" : 0,
            "byteLength" : 72,
            "byteOffset" : 44916
        },
        {
            "buffer" : 0,
            "byteLength" : 384,
            "byteOffset" : 44988
        },
        {
            "buffer" : 0,
            "byteLength" : 384,
            "byteOffset" : 45372
        },
        {
            "buffer" : 0,
            "byteLength" : 180,
            "byteOffset" : 45756
        },
        {
            "buffer" : 0,
            "byteLength" : 804,
            "byteOffset" : 45936
        },
        {
            "buffer" : 0,
            "byteLength" : 3216,
            "byteOffset" : 46740
        },
        {
            "buffer" : 0,
            "byteLength" : 2412,
            "byteOffset" : 49956
        },
        {
            "buffer" : 0,
            "byteLength" : 1432,
            "byteOffset" : 52368
        },
        {
            "buffer" : 0,
            "byteLength" : 5728,
            "byteOffset" : 53800
        }
    ],
    "buffers" : [
        {
            "byteLength" : 59528,
            "uri" : "data:application/octet-stream;base64,"
        }
    ]
}
